<?xml version="1.0" standalone="no"?>
<!DOCTYPE svg PUBLIC "-//W3C//DTD SVG 20010904//EN"
 "http://www.w3.org/TR/2001/REC-SVG-20010904/DTD/svg10.dtd">
<svg version="1.0" xmlns="http://www.w3.org/2000/svg"
 width="734.000000pt" height="518.000000pt" viewBox="0 0 734.000000 518.000000"
 preserveAspectRatio="xMidYMid meet">

<g transform="translate(0.000000,518.000000) scale(0.100000,-0.100000)"
fill="#FF0000" stroke="none">
<path d="M2790 5164 c-1095 -30 -1695 -73 -1959 -140 -102 -25 -231 -82 -307
-135 -137 -94 -266 -256 -329 -411 -98 -242 -160 -763 -185 -1556 -23 -712 32
-1593 126 -2022 48 -216 137 -385 272 -512 87 -82 140 -118 244 -168 219 -105
600 -148 1693 -192 417 -17 2233 -17 2650 0 844 34 1293 72 1514 128 102 25
231 82 307 135 137 94 266 256 329 411 98 242 160 763 185 1555 23 713 -32
1594 -126 2023 -48 216 -137 385 -272 512 -87 82 -140 118 -244 168 -216 104
-592 147 -1653 191 -235 9 -1995 20 -2245 13z m1093 -2028 c521 -296 947 -542
947 -546 0 -6 -1868 -1075 -1902 -1088 -4 -2 -8 488 -8 1088 0 600 4 1090 8
1088 5 -1 435 -245 955 -542z"/>
</g>
</svg>
